<?xml version="1.0" encoding="utf-8"?>
<!-- Generator: Adobe Illustrator 26.0.1, SVG Export Plug-In . SVG Version: 6.00 Build 0)  -->
<svg version="1.1" id="Layer_1" xmlns="http://www.w3.org/2000/svg" xmlns:xlink="http://www.w3.org/1999/xlink" x="0px" y="0px"
	 viewBox="0 0 513 420" style="enable-background:new 0 0 513 420;" xml:space="preserve">
<style type="text/css">
	.st0{fill:#FFFFFF;stroke:#000000;stroke-miterlimit:10;}
</style>
<rect x="39" y="40.89" class="st0" width="435" height="351"/>
<g transform="translate(0.000000,420.000000) scale(0.100000,-0.100000)">
	<path d="M437,4129c-189-28-375-205-416-397c-8-38-11-504-11-1650C10,314,6,428,75,305c59-106,167-196,290-241c48-18,134-19,2173-22
		c2335-2,2185-6,2313,58c78,40,179,141,219,219c63,126,60,33,60,1762c0,1079-3,1594-11,1635c-32,178-176,338-364,402
		c-47,16-193,17-2155,18C1442,4137,469,4134,437,4129z M1679,3098c465-287,856-528,867-535c20-13,83,24,889,522l867,535h159h159
		l-2-1532l-3-1533h-255h-255l-5,1122l-5,1123l-759-481c-451-286-765-479-775-476c-9,2-355,218-769,481c-414,262-755,476-757,476
		c-3,0-5-506-5-1125V550H775H520v1535v1535h157h156L1679,3098z"/>
</g>
</svg>
